<svg xmlns="http://www.w3.org/2000/svg" width="210.667" height="97.327" viewBox="0 0 210.667 97.327">
  <g id="Ejar-logo" transform="translate(-14.699 -11.5)">
    <g id="Group_2" data-name="Group 2" transform="translate(122.821 11.5)">
      <path id="Path_13" data-name="Path 13" d="M587.5,224.63v13.722c.891,0,85.047-19.724,85.047-19.724,3.16-.742,4.136-1.442,4.136-3.033V201.3c-.021,1.782-2.566,3.16-5.239,3.775Z" transform="translate(-574.138 -161.046)" fill="#00ab84"/>
      <path id="Path_14" data-name="Path 14" d="M587.5,319.03v13.722c.891,0,85.047-19.724,85.047-19.724,3.16-.742,4.136-1.442,4.136-3.033V295.7c-.021,1.782-2.566,3.16-5.239,3.775Z" transform="translate(-574.138 -235.425)" fill="#00594f"/>
      <path id="Path_15" data-name="Path 15" d="M592.823,126.925l6.363,1.442c8.7-2.036,19.279-4.5,31.156-7.253L587.5,111.4v12.131c0,1.76,1.442,2.524,5.323,3.393" transform="translate(-574.138 -90.212)" fill="#c7c8c9"/>
      <path id="Path_16" data-name="Path 16" d="M645.315,38.923l-52.492-11.9c-3.881-.87-5.323-1.633-5.323-3.393V11.5l86.235,19.554a8.877,8.877,0,0,1-4.454,2.291h-.021Z" transform="translate(-574.138 -11.5)" fill="#c7c8c9"/>
      <path id="Path_17" data-name="Path 17" d="M536.759,129.963,524.5,146.7c1.23-.276,98.409-22.969,98.409-22.969,3.16-.742,4.136-1.442,4.136-3.033V106.4c-.021,1.782-2.566,3.16-5.239,3.775Z" transform="translate(-524.5 -86.273)" fill="#4cc2bf"/>
    </g>
    <g id="Group_4" data-name="Group 4" transform="translate(14.699 29.4)">
      <path id="Path_18" data-name="Path 18" d="M18.781,131.424v13.722a3.223,3.223,0,0,1-.467,2.036,1.744,1.744,0,0,1-1.4.551,4.9,4.9,0,0,1-2.015-.551v3.839a11.8,11.8,0,0,0,3.627.721,5.292,5.292,0,0,0,2.842-.721,4.221,4.221,0,0,0,1.718-2.1,11.865,11.865,0,0,0,.551-4.136V130.3Z" transform="translate(-14.857 -123.004)" fill="#54565b"/>
      <path id="Path_19" data-name="Path 19" d="M89.757,101.2,84.9,102.345V115.94a11.866,11.866,0,0,0,.551,4.136,4.221,4.221,0,0,0,1.718,2.1,5.191,5.191,0,0,0,2.8.721l53.51-.021a5.181,5.181,0,0,0,2.545-.721,4.221,4.221,0,0,0,1.718-2.1,11.865,11.865,0,0,0,.551-4.136V108.6l-4.857,1.145v5.514a3.264,3.264,0,0,1-.467,2.036,1.537,1.537,0,0,1-1.124.53h-8.7l-.064-1.421a11.6,11.6,0,0,0-.7-3.839,8.692,8.692,0,0,0-2.333-3.542,11.49,11.49,0,0,0-4.242-2.375,20.685,20.685,0,0,0-6.405-.87c-.954,0-1.782.021-2.439.042s-.106.085-.615.127l-.445,4.666c.509-.064,1.124-.106,1.824-.127s1.485-.042,2.333-.042a15.152,15.152,0,0,1,3.818.4,6.021,6.021,0,0,1,2.545,1.294,4.867,4.867,0,0,1,1.421,2.312,11.77,11.77,0,0,1,.424,3.372H91.347a1.576,1.576,0,0,1-1.124-.53,3.183,3.183,0,0,1-.467-2.036Z" transform="translate(-70.011 -100.076)" fill="#54565b"/>
      <path id="Path_20" data-name="Path 20" d="M408.5,216.412a3.237,3.237,0,0,1,1.039.255c.382.191.636.318.848.445V214.8c-.382-.191-.785-.382-1.1-.509a3.261,3.261,0,0,0-1.1-.191,4.24,4.24,0,0,0-1.294.191,3.029,3.029,0,0,0-1.1.573,2.755,2.755,0,0,0-.7.976,3.64,3.64,0,0,0-.254,1.485,2.192,2.192,0,0,0,.064.573,6,6,0,0,0,.191.573H403.6v2.057h6.7v-2.121h-2.778a1.2,1.2,0,0,1-.255-.573,1.791,1.791,0,0,1-.064-.509.824.824,0,0,1,.382-.785A2.119,2.119,0,0,1,408.5,216.412Z" transform="translate(-321.119 -189.031)" fill="#54565b"/>
      <path id="Path_21" data-name="Path 21" d="M321.336,218.3a2.613,2.613,0,0,0-1.93.806,2.654,2.654,0,0,0-.806,1.994,2.613,2.613,0,0,0,.806,1.93,2.516,2.516,0,0,0,1.93.806,2.8,2.8,0,0,0,1.93-.806,2.612,2.612,0,0,0,.806-1.93,2.687,2.687,0,0,0-.806-1.994A2.646,2.646,0,0,0,321.336,218.3Z" transform="translate(-254.146 -192.34)" fill="#54565b"/>
      <path id="Path_22" data-name="Path 22" d="M353.936,218.3a2.613,2.613,0,0,0-1.93.806,2.654,2.654,0,0,0-.806,1.994,2.612,2.612,0,0,0,.806,1.93,2.516,2.516,0,0,0,1.93.806,2.883,2.883,0,0,0,1.93-.806,2.613,2.613,0,0,0,.806-1.93,2.687,2.687,0,0,0-.806-1.994A2.646,2.646,0,0,0,353.936,218.3Z" transform="translate(-279.832 -192.34)" fill="#54565b"/>
      <path id="Path_23" data-name="Path 23" d="M242.036,218.3a2.612,2.612,0,0,0-1.93.806,2.654,2.654,0,0,0-.806,1.994,2.612,2.612,0,0,0,.806,1.93,2.516,2.516,0,0,0,1.93.806,2.8,2.8,0,0,0,1.93-.806,2.612,2.612,0,0,0,.806-1.93,2.687,2.687,0,0,0-.806-1.994A2.646,2.646,0,0,0,242.036,218.3Z" transform="translate(-191.665 -192.34)" fill="#54565b"/>
      <path id="Path_24" data-name="Path 24" d="M412.5,97.024V118.7h4.878V95.9Z" transform="translate(-328.131 -95.9)" fill="#54565b"/>
      <path id="Path_25" data-name="Path 25" d="M18.453,306.687H30.542v-4.475H19.535v-3.754h9.756v-4.5H19.535v-4.051H30.542V285.5H18.453a3.747,3.747,0,0,0-3.754,3.754v13.658A3.739,3.739,0,0,0,18.453,306.687Z" transform="translate(-14.699 -245.288)" fill="#54565b"/>
      <path id="Path_26" data-name="Path 26" d="M365.358,305.9c-1.527-2.1-3.075-4.2-4.645-6.278a7.068,7.068,0,0,0,2.693-2.375,7.587,7.587,0,0,0,1.23-4.284,8.148,8.148,0,0,0-.551-2.99,6.934,6.934,0,0,0-1.527-2.375,6.783,6.783,0,0,0-2.375-1.548,8.179,8.179,0,0,0-3.012-.551h-6.85a2.833,2.833,0,0,0-2.821,2.821v18.346h4.857V300.24h3.054q1.082,1.559,2.163,3.054c.764,1.06,1.569,2.142,2.375,3.181l.148.191h5.832Zm-13-15.97h4.793a2.685,2.685,0,0,1,1.357.3,2.46,2.46,0,0,1,.785.764,3.027,3.027,0,0,1,.382,1,6.191,6.191,0,0,1,.106.954,2.925,2.925,0,0,1-.848,2.185,2.627,2.627,0,0,1-.827.53,2.386,2.386,0,0,1-.912.17h-4.814v-5.9Z" transform="translate(-276.917 -245.288)" fill="#54565b"/>
      <path id="Path_27" data-name="Path 27" d="M128.056,286.124v11.919a7.139,7.139,0,0,1-.127,1.251,4.145,4.145,0,0,1-.445,1.273,2.788,2.788,0,0,1-.933,1,2.923,2.923,0,0,1-1.612.382,2.836,2.836,0,0,1-1.018-.17,3.29,3.29,0,0,1-.764-.445,3.177,3.177,0,0,1-.573-.615,2.854,2.854,0,0,1-.382-.7l-.191-.467-4.411,1.972.212.445a7.387,7.387,0,0,0,2.8,3.266,7.971,7.971,0,0,0,4.369,1.188,8.837,8.837,0,0,0,3.245-.594,7.213,7.213,0,0,0,2.524-1.718,7.394,7.394,0,0,0,1.612-2.672,9.656,9.656,0,0,0,.573-3.393V285Z" transform="translate(-95.776 -244.894)" fill="#54565b"/>
      <g id="Group_3" data-name="Group 3" transform="translate(41.803 40.254)">
        <path id="Path_28" data-name="Path 28" d="M223.847,286.188a.811.811,0,0,0-.742-.488.823.823,0,0,0-.742.488L211.8,306.845h5.323l1.548-3.16h8.865l1.569,3.16h5.323ZM221,299.316l2.1-4.433,2.078,4.433Z" transform="translate(-211.8 -285.7)" fill="#54565b"/>
      </g>
    </g>
  </g>
</svg>
