<?xml version="1.0" encoding="utf-8"?>
<!-- Generator: Adobe Illustrator 24.0.2, SVG Export Plug-In . SVG Version: 6.00 Build 0)  -->
<svg version="1.1" id="Capa_1" xmlns="http://www.w3.org/2000/svg" xmlns:xlink="http://www.w3.org/1999/xlink" x="0px" y="0px"
	 viewBox="0 0 512 512" style="enable-background:new 0 0 512 512;" xml:space="preserve">
<style type="text/css">
	.st0{fill:#03DCD5;}
	.st1{fill:#04A098;}
	.st2{fill:#D3D3D8;}
	.st3{fill:#ECECF1;}
	.st4{fill:#B9B9BE;}
	.st5{fill:#8C96DD;}
	.st6{fill:#232E7A;}
	.st7{fill:#3342AE;}
	.st8{fill:#3D4EC6;}
	.st9{fill:#7CD2E3;}
	.st10{fill:#A6E0EC;}
</style>
<g>
	<path class="st0" d="M512,254.1c1,140.8-112.9,256.7-253.7,257.9c-99.4,0.9-185.8-54.9-229-136.9c-6.1-11.5,2.3-25.4,15.4-25.4
		h54.5c162.3,0,293.9-131.6,293.9-293.9c0-6.9,7.9-10.9,13.4-6.9C470,95.1,511.4,169.7,512,254.1L512,254.1z"/>
	<path class="st1" d="M388.5,334.6v110.2c0,2.8-2.2,5-5,5H88.7c-24.1-20.9-44.3-46.1-59.3-74.6c-6.1-11.6,2.2-25.5,15.3-25.5h54.5
		c32.5,0,63.9-5.3,93.1-15.1L388.5,334.6L388.5,334.6z"/>
	<path class="st2" d="M403.5,403.5H95c-2.8,0-5-2.2-5-5V255.9c0-117.5,88.3-216.3,205.1-229.4c35-3.9,78.3,1.8,86.9,6.7
		c9.2,5.2,18.1,11,26.5,17.3v348.1C408.5,401.3,406.3,403.5,403.5,403.5L403.5,403.5z"/>
	<path class="st3" d="M382,33.1V372c0,2.8-2.2,5-5,5H38.9C19.1,340.2,8.1,298.1,8.5,253.4C10,113.2,116.6-0.4,256.7,0
		C302.3,0.1,345,12.1,382,33.1z"/>
	<path class="st2" d="M90,377H30.3C10.6,340.2-0.4,298.1,0,253.4C1.4,113.2,116.6-0.4,256.7,0c23.2,0.1,45.7,3.2,67,9.1
		c-1.7,0-3.4-0.1-5-0.1C178.6,8.6,63.4,122.2,62,262.4C61.6,303.5,73.2,342.4,90,377L90,377z"/>
	<path class="st4" d="M210,315.2c0,2.8-2.2,5-5,5H93.4c-2.8,0-5-2.2-5-5s2.2-5,5-5H205C207.8,310.2,210,312.4,210,315.2z M335,30.2
		h-60c-2.8,0-5,2.2-5,5s2.2,5,5,5h60c2.8,0,5-2.2,5-5S337.8,30.2,335,30.2z M335,50h-30c-2.8,0-5,2.2-5,5s2.2,5,5,5h30
		c2.8,0,5-2.2,5-5S337.8,50,335,50z M93.4,170.2h184.1c2.8,0,5-2.2,5-5s-2.2-5-5-5H93.4c-2.8,0-5,2.2-5,5
		C88.4,168,90.6,170.2,93.4,170.2z M301.2,182.2H93.4c-2.8,0-5,2.2-5,5s2.2,5,5,5h207.8c2.8,0,5-2.2,5-5S304,182.2,301.2,182.2z
		 M325,137.2H93.4c-2.8,0-5,2.2-5,5s2.2,5,5,5H325c2.8,0,5-2.2,5-5S327.8,137.2,325,137.2z"/>
	<path class="st5" d="M134.6,106.2c0,2.8-2.2,5-5,5H93.4c-2.8,0-5-2.2-5-5s2.2-5,5-5h36.2C132.4,101.2,134.6,103.4,134.6,106.2
		L134.6,106.2z M195,79.2H93.4c-2.8,0-5,2.2-5,5s2.2,5,5,5H195c2.8,0,5-2.2,5-5S197.8,79.2,195,79.2z"/>
	<path class="st6" d="M231.1,267.5c0,2.8-2.2,5-5,5h-35.3l-6,6c-1.1,1.1-2.6,1.6-4.1,1.4c-1.5-0.2-2.9-1-3.7-2.3l-9.9-15.7l-19,30.6
		c-0.9,1.5-2.5,2.4-4.2,2.4c-0.3,0-0.5,0-0.8-0.1c-2-0.3-3.6-1.8-4.1-3.7l-12-48.1l-16.2,27.1c-0.9,1.5-2.5,2.4-4.3,2.4H83.9
		c-2.8,0-5-2.2-5-5s2.2-5,5-5h19.6l21-35c1-1.7,3-2.7,5-2.4c2,0.3,3.6,1.8,4.1,3.7l12.1,48.4l17-27.4c0.9-1.5,2.5-2.4,4.2-2.4h0
		c1.7,0,3.3,0.9,4.2,2.3l10.9,17.2l3.1-3.1c0.9-0.9,2.2-1.5,3.5-1.5h37.4C228.8,262.5,231.1,264.7,231.1,267.5L231.1,267.5z
		 M250.4,262.5h-1.4c-2.8,0-5,2.2-5,5s2.2,5,5,5h1.4c2.8,0,5-2.2,5-5S253.1,262.5,250.4,262.5z"/>
	<path class="st6" d="M315,293.7c-2.8,0-5-2.2-5-5v-63.3c0-2.8,2.2-5,5-5s5,2.2,5,5v63.3C320,291.4,317.8,293.7,315,293.7z M315,430
		c8.3,0,15,6.7,15,15v25c0,5.5-4.5,10-10,10h-10c-5.5,0-10-4.5-10-10v-25C300,436.7,306.7,430,315,430z"/>
	<path class="st7" d="M315,460c-8.3,0-15-6.7-15-15V335c0-8.3,6.7-15,15-15s15,6.7,15,15v110C330,453.3,323.3,460,315,460z"/>
	<path class="st8" d="M315,360c-8.3,0-15-6.7-15-15v-90c0-8.3,6.7-15,15-15s15,6.7,15,15v90C330,353.3,323.3,360,315,360z"/>
	<path class="st9" d="M330,275h-30c-2.8,0-5-2.2-5-5s2.2-5,5-5h30c2.8,0,5,2.2,5,5S332.8,275,330,275z M335,372.3v-17.6
		c0-2.8-2.2-5-5-5s-5,2.2-5,5v19.6c0,1.3,0.5,2.6,1.5,3.5c17.1,17.1,17.5,44.5,1.4,62.2H300c-2.8,0-5,2.2-5,5s2.2,5,5,5h30
		c1.3,0,2.6-0.5,3.5-1.5C354.5,427.6,355,393.8,335,372.3L335,372.3z"/>
	<path class="st10" d="M325,450h-12.9c-2.8,0-5-2.2-5-5s2.2-5,5-5H325c2.8,0,5,2.2,5,5S327.8,450,325,450z M330,270c0-2.8-2.2-5-5-5
		h-12.9c-2.8,0-5,2.2-5,5s2.2,5,5,5H325C327.8,275,330,272.8,330,270z"/>
</g>
</svg>
