<?xml version="1.0" encoding="utf-8"?>
<!-- Generator: Adobe Illustrator 24.0.2, SVG Export Plug-In . SVG Version: 6.00 Build 0)  -->
<svg version="1.1"
	 id="Layer_1" text-rendering="geometricPrecision" shape-rendering="geometricPrecision" image-rendering="optimizeQuality"
	 xmlns="http://www.w3.org/2000/svg" xmlns:xlink="http://www.w3.org/1999/xlink" x="0px" y="0px" viewBox="0 0 512 512"
	 style="enable-background:new 0 0 512 512;" xml:space="preserve">
<style type="text/css">
	.st0{fill-rule:evenodd;clip-rule:evenodd;fill:#FFFFFF;}
	.st1{fill:#FFFFFF;}
</style>
<path id="_223590672" class="st0" d="M155.9,121.3c-5.5,0-10,4.5-10,10v249.4c0,5.5,4.5,10,10,10l200.1,0c5.5,0,10-4.5,10-10
	l0-249.4c0-5.5-4.5-10-10-10L155.9,121.3L155.9,121.3z M356.1,398H155.9c-9.5,0-17.3-7.8-17.3-17.3V131.3c0-9.5,7.8-17.3,17.3-17.3
	l200.1,0c9.5,0,17.3,7.8,17.3,17.3v249.4C373.4,390.2,365.6,398,356.1,398L356.1,398z"/>
<path id="_223590576" class="st0" d="M256.4,350.3h-16.5c-2,0-3.6-1.6-3.6-3.6c0-2,1.6-3.6,3.6-3.6h16.5c2,0,3.6,1.6,3.6,3.6
	C260,348.7,258.4,350.3,256.4,350.3L256.4,350.3z"/>
<path id="_223590480" class="st0" d="M256.4,350.2c-1.5,0-2.9-0.9-3.4-2.4c-0.7-1.9,0.3-4,2.2-4.7c5.9-2.1,5.9-2.1,8.9-7.1
	c0.8-1.3,1.8-2.9,3-4.9c0.7-1.2,2.1-1.8,3.4-1.7c1.4,0.1,2.5,1,3,2.3c0.8,2,1.4,3.5,1.9,4.7c0.9-2.6,2.2-5.9,4.2-9
	c0.5-0.8,1.4-1.4,2.3-1.6c1-0.2,2,0,2.8,0.5c1.5,1,2.3,2.8,3.2,5.1c0.3-0.6,0.5-1.1,0.7-1.7c1.3-3,2.3-5.4,5.1-5.6
	c1.5-0.1,3,0.7,3.8,2.1c0.7,1.2,1,2.5,1.4,3.7c0.2,0.7,0.5,1.8,0.8,2.3c0.7-0.1,3.3-0.9,9.5-6.1c1.5-1.3,3.8-1.1,5.1,0.4
	c1.3,1.5,1.1,3.8-0.4,5.1c-7.7,6.5-12.6,8.8-16.5,7.6c-1.8-0.6-3-1.7-3.8-3c-0.5,1-1.1,2-1.9,3c-1.7,2.2-3.7,2.3-4.7,2.1
	c-2.1-0.3-3.4-1.8-4.4-3.7c-0.3,0.7-0.5,1.4-0.8,2.1c-1.4,3.8-2.6,7.1-6.1,7.2c-2.6,0-4.4-1.8-6.3-6c-3.2,5.2-4.6,6.3-11.9,9
	C257.2,350.2,256.8,350.2,256.4,350.2L256.4,350.2z"/>
<path id="_223590816" class="st0" d="M218.2,379.4c-4.5,0-10.4-1-18.7-3c-2-0.5-3.2-2.4-2.7-4.4c0.5-2,2.4-3.2,4.4-2.7
	c12.2,3,18.7,3.5,22.3,1.8c3.5-1.6,5.5-5.9,8.9-13.1c0.3-0.7,0.7-1.4,1-2.2c4.9-10.4,10.4-50.8,9-60c-0.3-1.9,0.9-3.7,2.7-4.1
	c1.9-0.4,3.7,0.6,4.3,2.4c4.7,14.4,8.6,33.8,10.5,52.1c0.8,7.7,1.2,14.7,1.2,20.9c0,2-1.6,3.6-3.6,3.6c-2,0-3.6-1.6-3.6-3.6
	c0-5.9-0.4-12.7-1.2-20.1c-1-9.1-2.4-18.5-4.3-27.4c-1.8,15.2-5.1,32.4-8.5,39.4c-0.4,0.7-0.7,1.5-1,2.2c-4,8.4-6.6,13.9-12.4,16.6
	C224.3,378.9,221.6,379.4,218.2,379.4L218.2,379.4z"/>
<path id="_223590528" class="st0" d="M346.8,153.1h-86.1c-2,0-3.6-1.6-3.6-3.6c0-2,1.6-3.6,3.6-3.6l86.1,0c2,0,3.6,1.6,3.6,3.6
	C350.5,151.5,348.8,153.1,346.8,153.1L346.8,153.1z"/>
<path id="_223591056" class="st0" d="M346.8,182.6h-86.1c-2,0-3.6-1.6-3.6-3.6c0-2,1.6-3.6,3.6-3.6h86.1c2,0,3.6,1.6,3.6,3.6
	C350.5,181,348.8,182.6,346.8,182.6z"/>
<path id="_315233872" class="st0" d="M346.8,212.1h-86.1c-2,0-3.6-1.6-3.6-3.6c0-2,1.6-3.6,3.6-3.6h86.1c2,0,3.6,1.6,3.6,3.6
	C350.5,210.5,348.8,212.1,346.8,212.1z"/>
<path id="_315234208" class="st0" d="M343,243.5H169c-2,0-3.6-1.6-3.6-3.6c0-2,1.6-3.6,3.6-3.6l174,0c2,0,3.6,1.6,3.6,3.6
	C346.7,241.8,345,243.5,343,243.5L343,243.5z"/>
<path id="_315234088" class="st0" d="M343,273H169c-2,0-3.6-1.6-3.6-3.6c0-2,1.6-3.6,3.6-3.6l174,0c2,0,3.6,1.6,3.6,3.6
	C346.7,271.3,345,273,343,273L343,273z"/>
<g>
	<path class="st1" d="M242.2,160.7c0-0.1,0-0.2,0-0.2c0-0.1,0-0.1,0-0.2c0-0.1,0-0.1-0.1-0.2c0-0.1,0-0.1-0.1-0.2c0,0,0,0,0,0
		l-6.5-14c-0.3-0.7-1.1-1.2-1.9-1.2h-60.3c-0.8,0-1.5,0.5-1.9,1.2l-6.5,14c0,0,0,0,0,0c0,0.1-0.1,0.2-0.1,0.3c0,0,0,0.1,0,0.1
		c0,0.1,0,0.3,0,0.4v7.7c0,2.5,1.2,4.7,3.1,6v38c0,1.1,0.9,2.1,2.1,2.1H210h18.3h8.6c1.1,0,2.1-0.9,2.1-2.1v-37.9
		c1.9-1.3,3.2-3.5,3.2-6.1L242.2,160.7C242.3,160.7,242.2,160.7,242.2,160.7z M234.9,171.5c-1.7,0-3.2-1.4-3.2-3.2v-5.6h6.3v5.6
		C238.1,170.1,236.7,171.5,234.9,171.5z M212.1,184.3h14.1v26h-14.1V184.3z M228.3,180.1H210c-1.1,0-2.1,0.9-2.1,2.1v28.1h-35.8
		v-34.6c0,0,0,0,0,0h0c2,0,3.9-0.9,5.2-2.2c1.3,1.4,3.2,2.2,5.2,2.2h0c2,0,3.9-0.9,5.2-2.2c1.3,1.4,3.2,2.2,5.2,2.2h0
		c2,0,3.9-0.9,5.2-2.2c1.3,1.4,3.2,2.2,5.2,2.2h0c2,0,3.9-0.9,5.2-2.2c1.3,1.4,3.2,2.2,5.2,2.2h0c2,0,3.9-0.9,5.2-2.2
		c1.3,1.4,3.2,2.2,5.2,2.2h0c2,0,3.9-0.9,5.2-2.2c1.3,1.3,3.1,2.2,5.2,2.2v34.6h-4.5v-28.1C230.4,181.1,229.5,180.1,228.3,180.1z
		 M169.1,162.8h6.3v5.6c0,1.7-1.4,3.2-3.2,3.2s-3.2-1.4-3.2-3.2V162.8z M179.5,162.8h6.3v5.6c0,1.7-1.4,3.2-3.2,3.2c0,0,0,0,0,0
		c-0.8,0-1.6-0.3-2.2-0.9c-0.6-0.6-0.9-1.4-0.9-2.2V162.8z M196.3,168.4c0,1.7-1.4,3.2-3.2,3.2s-3.2-1.4-3.2-3.2v-5.6h6.3V168.4z
		 M206.7,168.4c0,1.7-1.4,3.2-3.2,3.2s-3.2-1.4-3.2-3.2v-5.6h6.3V168.4z M210.9,162.8h6.3v5.6c0,1.7-1.4,3.2-3.2,3.2
		s-3.2-1.4-3.2-3.2V162.8z M221.3,162.8h6.3v5.6c0,1.7-1.4,3.2-3.2,3.2s-3.2-1.4-3.2-3.2V162.8z M229.7,158.6h-10.5h0h-10.5h-10.5
		h-10.5h0h-10.5h-7.2l4.5-9.8h57.6l4.5,9.8H229.7z"/>
	<path class="st1" d="M203.6,179.6h-26.9c-1.1,0-2.1,0.9-2.1,2.1v21.5c0,1.1,0.9,2.1,2.1,2.1h26.9c1.1,0,2.1-0.9,2.1-2.1v-21.5
		C205.7,180.5,204.7,179.6,203.6,179.6z M201.5,183.7v17.4h-22.8v-17.4H201.5z"/>
</g>
</svg>
